<?xml version="1.0" encoding="UTF-8" standalone="no"?>
<!DOCTYPE svg PUBLIC "-//W3C//DTD SVG 1.1//EN" "http://www.w3.org/Graphics/SVG/1.1/DTD/svg11.dtd">
<svg width="100%" height="100%" viewBox="0 0 256 256" version="1.1" xmlns="http://www.w3.org/2000/svg" xmlns:xlink="http://www.w3.org/1999/xlink" xml:space="preserve" xmlns:serif="http://www.serif.com/" style="fill-rule:evenodd;clip-rule:evenodd;stroke-linejoin:round;stroke-miterlimit:2;">
    <g transform="matrix(1,0,0,1.03797,6,-4.34177)">
        <ellipse cx="122" cy="127.5" rx="79" ry="118.5" style="fill:white;"/>
    </g>
    <g transform="matrix(5.7,0,0,2.89412,-356.5,-365.447)">
        <path d="M85,128L95,170.5L85,213L75,170.5L85,128Z"/>
    </g>
    <g transform="matrix(1,0,0,1,57,40.6875)">
        <path d="M72.875,129.292L71.938,111.313C71.936,111.282 71.935,111.252 71.935,111.221C71.935,110.136 72.829,109.242 73.915,109.242C74.027,109.242 74.139,109.252 74.25,109.271L92.146,112.417L89.729,105.75C89.529,105.208 89.697,104.594 90.146,104.229L109.75,88.354L105.333,86.292C104.719,86.001 104.414,85.291 104.625,84.646L108.5,72.729L97.208,75.125C96.58,75.256 95.941,74.923 95.688,74.333L93.5,69.188L84.688,78.646C84.432,78.915 84.076,79.068 83.705,79.068C82.962,79.068 82.351,78.457 82.351,77.714C82.351,77.628 82.359,77.543 82.375,77.458L86.625,55.542L79.813,59.479C79.605,59.601 79.368,59.665 79.128,59.665C78.616,59.665 78.146,59.375 77.917,58.917L71,45.333L64.083,58.917C63.854,59.375 63.384,59.665 62.872,59.665C62.632,59.665 62.395,59.601 62.188,59.479L55.375,55.542L59.625,77.458C59.641,77.543 59.649,77.628 59.649,77.714C59.649,78.457 59.038,79.068 58.295,79.068C57.924,79.068 57.568,78.915 57.313,78.646L48.5,69.188L46.313,74.333C46.059,74.923 45.42,75.256 44.792,75.125L33.5,72.729L37.375,84.646C37.586,85.291 37.281,86.001 36.667,86.292L32.25,88.354L51.854,104.229C52.303,104.594 52.471,105.208 52.271,105.75L49.854,112.417L67.75,109.271C67.861,109.252 67.973,109.242 68.085,109.242C69.171,109.242 70.065,110.136 70.065,111.221C70.065,111.252 70.064,111.282 70.063,111.313L69.125,129.292L72.875,129.292Z" style="fill:rgb(243,89,89);"/>
    </g>
</svg>
